<mxfile host="app.diagrams.net" agent="Mozilla/5.0 (Windows NT 10.0; Win64; x64) AppleWebKit/537.36 (KHTML, like Gecko) Chrome/139.0.0.0 Safari/537.36" version="28.2.0">
  <diagram id="C5RBs43oDa-KdzZeNtuy" name="Page-1">
    <mxGraphModel dx="1708" dy="830" grid="1" gridSize="10" guides="1" tooltips="1" connect="1" arrows="1" fold="1" page="1" pageScale="1" pageWidth="827" pageHeight="1169" math="0" shadow="0">
      <root>
        <mxCell id="WIyWlLk6GJQsqaUBKTNV-0" />
        <mxCell id="WIyWlLk6GJQsqaUBKTNV-1" parent="WIyWlLk6GJQsqaUBKTNV-0" />
        <mxCell id="Yy9-jkvoBrsG2HOOlJAp-3" value="" style="edgeStyle=orthogonalEdgeStyle;rounded=0;orthogonalLoop=1;jettySize=auto;html=1;" parent="WIyWlLk6GJQsqaUBKTNV-1" source="Yy9-jkvoBrsG2HOOlJAp-1" target="Yy9-jkvoBrsG2HOOlJAp-2" edge="1">
          <mxGeometry relative="1" as="geometry" />
        </mxCell>
        <mxCell id="Yy9-jkvoBrsG2HOOlJAp-1" value="Insertion Sort" style="strokeWidth=2;html=1;shape=mxgraph.flowchart.terminator;whiteSpace=wrap;fillColor=#EA6B66;" parent="WIyWlLk6GJQsqaUBKTNV-1" vertex="1">
          <mxGeometry x="270" y="40" width="100" height="60" as="geometry" />
        </mxCell>
        <mxCell id="Yy9-jkvoBrsG2HOOlJAp-5" value="" style="edgeStyle=orthogonalEdgeStyle;rounded=0;orthogonalLoop=1;jettySize=auto;html=1;" parent="WIyWlLk6GJQsqaUBKTNV-1" source="Yy9-jkvoBrsG2HOOlJAp-2" target="Yy9-jkvoBrsG2HOOlJAp-4" edge="1">
          <mxGeometry relative="1" as="geometry" />
        </mxCell>
        <mxCell id="Yy9-jkvoBrsG2HOOlJAp-2" value="Set N =&lt;div&gt;Length of Array&lt;/div&gt;" style="shape=parallelogram;perimeter=parallelogramPerimeter;whiteSpace=wrap;html=1;fixedSize=1;strokeWidth=2;fillColor=#F8CECC;" parent="WIyWlLk6GJQsqaUBKTNV-1" vertex="1">
          <mxGeometry x="260" y="140" width="120" height="60" as="geometry" />
        </mxCell>
        <mxCell id="Yy9-jkvoBrsG2HOOlJAp-7" value="" style="edgeStyle=orthogonalEdgeStyle;rounded=0;orthogonalLoop=1;jettySize=auto;html=1;" parent="WIyWlLk6GJQsqaUBKTNV-1" source="Yy9-jkvoBrsG2HOOlJAp-4" target="Yy9-jkvoBrsG2HOOlJAp-6" edge="1">
          <mxGeometry relative="1" as="geometry" />
        </mxCell>
        <mxCell id="Yy9-jkvoBrsG2HOOlJAp-4" value="Set I&amp;nbsp; = 1" style="shape=parallelogram;perimeter=parallelogramPerimeter;whiteSpace=wrap;html=1;fixedSize=1;strokeWidth=2;fillColor=#F8CECC;" parent="WIyWlLk6GJQsqaUBKTNV-1" vertex="1">
          <mxGeometry x="260" y="239" width="120" height="60" as="geometry" />
        </mxCell>
        <mxCell id="Yy9-jkvoBrsG2HOOlJAp-9" value="" style="edgeStyle=orthogonalEdgeStyle;rounded=0;orthogonalLoop=1;jettySize=auto;html=1;" parent="WIyWlLk6GJQsqaUBKTNV-1" source="Yy9-jkvoBrsG2HOOlJAp-6" target="Yy9-jkvoBrsG2HOOlJAp-8" edge="1">
          <mxGeometry relative="1" as="geometry" />
        </mxCell>
        <mxCell id="Yy9-jkvoBrsG2HOOlJAp-6" value="Set Value&amp;nbsp; = Array [I]" style="shape=parallelogram;perimeter=parallelogramPerimeter;whiteSpace=wrap;html=1;fixedSize=1;strokeWidth=2;fillColor=#F8CECC;" parent="WIyWlLk6GJQsqaUBKTNV-1" vertex="1">
          <mxGeometry x="250" y="340" width="140" height="60" as="geometry" />
        </mxCell>
        <mxCell id="Yy9-jkvoBrsG2HOOlJAp-11" value="" style="edgeStyle=orthogonalEdgeStyle;rounded=0;orthogonalLoop=1;jettySize=auto;html=1;" parent="WIyWlLk6GJQsqaUBKTNV-1" source="Yy9-jkvoBrsG2HOOlJAp-8" target="Yy9-jkvoBrsG2HOOlJAp-10" edge="1">
          <mxGeometry relative="1" as="geometry" />
        </mxCell>
        <mxCell id="Yy9-jkvoBrsG2HOOlJAp-8" value="Set J = I - 1" style="shape=parallelogram;perimeter=parallelogramPerimeter;whiteSpace=wrap;html=1;fixedSize=1;strokeWidth=2;fillColor=#F8CECC;" parent="WIyWlLk6GJQsqaUBKTNV-1" vertex="1">
          <mxGeometry x="260" y="450" width="120" height="60" as="geometry" />
        </mxCell>
        <mxCell id="Yy9-jkvoBrsG2HOOlJAp-13" value="" style="edgeStyle=orthogonalEdgeStyle;rounded=0;orthogonalLoop=1;jettySize=auto;html=1;" parent="WIyWlLk6GJQsqaUBKTNV-1" source="Yy9-jkvoBrsG2HOOlJAp-10" target="Yy9-jkvoBrsG2HOOlJAp-12" edge="1">
          <mxGeometry relative="1" as="geometry" />
        </mxCell>
        <mxCell id="Yy9-jkvoBrsG2HOOlJAp-10" value="J &amp;gt;= 0&lt;div&gt;AND&lt;/div&gt;&lt;div&gt;Array[J] &amp;gt; Value&lt;/div&gt;" style="rhombus;whiteSpace=wrap;html=1;strokeWidth=2;fillColor=#F19C99;" parent="WIyWlLk6GJQsqaUBKTNV-1" vertex="1">
          <mxGeometry x="255" y="560" width="130" height="120" as="geometry" />
        </mxCell>
        <mxCell id="Yy9-jkvoBrsG2HOOlJAp-15" value="" style="edgeStyle=orthogonalEdgeStyle;rounded=0;orthogonalLoop=1;jettySize=auto;html=1;" parent="WIyWlLk6GJQsqaUBKTNV-1" source="Yy9-jkvoBrsG2HOOlJAp-12" target="Yy9-jkvoBrsG2HOOlJAp-14" edge="1">
          <mxGeometry relative="1" as="geometry" />
        </mxCell>
        <mxCell id="Yy9-jkvoBrsG2HOOlJAp-12" value="Set Array[J+1] =&lt;div&gt;Array[J]&lt;/div&gt;" style="whiteSpace=wrap;html=1;strokeWidth=2;fillColor=#E6E6E6;" parent="WIyWlLk6GJQsqaUBKTNV-1" vertex="1">
          <mxGeometry x="260" y="730" width="120" height="60" as="geometry" />
        </mxCell>
        <mxCell id="Yy9-jkvoBrsG2HOOlJAp-17" value="" style="edgeStyle=orthogonalEdgeStyle;rounded=0;orthogonalLoop=1;jettySize=auto;html=1;" parent="WIyWlLk6GJQsqaUBKTNV-1" source="Yy9-jkvoBrsG2HOOlJAp-14" target="Yy9-jkvoBrsG2HOOlJAp-16" edge="1">
          <mxGeometry relative="1" as="geometry" />
        </mxCell>
        <mxCell id="Yy9-jkvoBrsG2HOOlJAp-14" value="Decrement J&lt;div&gt;(J--)&lt;/div&gt;" style="whiteSpace=wrap;html=1;strokeWidth=2;fillColor=#E6E6E6;" parent="WIyWlLk6GJQsqaUBKTNV-1" vertex="1">
          <mxGeometry x="260" y="840" width="120" height="60" as="geometry" />
        </mxCell>
        <mxCell id="Yy9-jkvoBrsG2HOOlJAp-19" value="" style="edgeStyle=orthogonalEdgeStyle;rounded=0;orthogonalLoop=1;jettySize=auto;html=1;" parent="WIyWlLk6GJQsqaUBKTNV-1" source="Yy9-jkvoBrsG2HOOlJAp-16" target="Yy9-jkvoBrsG2HOOlJAp-18" edge="1">
          <mxGeometry relative="1" as="geometry" />
        </mxCell>
        <mxCell id="Yy9-jkvoBrsG2HOOlJAp-16" value="Array [J+1] = Value" style="whiteSpace=wrap;html=1;strokeWidth=2;fillColor=#B9E0A5;" parent="WIyWlLk6GJQsqaUBKTNV-1" vertex="1">
          <mxGeometry x="260" y="960" width="120" height="60" as="geometry" />
        </mxCell>
        <mxCell id="Yy9-jkvoBrsG2HOOlJAp-21" value="" style="edgeStyle=orthogonalEdgeStyle;rounded=0;orthogonalLoop=1;jettySize=auto;html=1;" parent="WIyWlLk6GJQsqaUBKTNV-1" source="Yy9-jkvoBrsG2HOOlJAp-18" target="Yy9-jkvoBrsG2HOOlJAp-20" edge="1">
          <mxGeometry relative="1" as="geometry" />
        </mxCell>
        <mxCell id="Yy9-jkvoBrsG2HOOlJAp-18" value="Increment I&lt;div&gt;(I++)&lt;/div&gt;" style="whiteSpace=wrap;html=1;strokeWidth=2;fillColor=#E6E6E6;" parent="WIyWlLk6GJQsqaUBKTNV-1" vertex="1">
          <mxGeometry x="260" y="1080" width="120" height="60" as="geometry" />
        </mxCell>
        <mxCell id="Yy9-jkvoBrsG2HOOlJAp-23" value="" style="edgeStyle=orthogonalEdgeStyle;rounded=0;orthogonalLoop=1;jettySize=auto;html=1;" parent="WIyWlLk6GJQsqaUBKTNV-1" source="Yy9-jkvoBrsG2HOOlJAp-20" target="Yy9-jkvoBrsG2HOOlJAp-22" edge="1">
          <mxGeometry relative="1" as="geometry" />
        </mxCell>
        <mxCell id="Yy9-jkvoBrsG2HOOlJAp-20" value="I &amp;lt; N" style="rhombus;whiteSpace=wrap;html=1;strokeWidth=2;fillColor=#F19C99;" parent="WIyWlLk6GJQsqaUBKTNV-1" vertex="1">
          <mxGeometry x="280" y="1200" width="80" height="80" as="geometry" />
        </mxCell>
        <mxCell id="Yy9-jkvoBrsG2HOOlJAp-22" value="Sorted Array" style="strokeWidth=2;html=1;shape=mxgraph.flowchart.terminator;whiteSpace=wrap;fillColor=#EA6B66;" parent="WIyWlLk6GJQsqaUBKTNV-1" vertex="1">
          <mxGeometry x="270" y="1340" width="100" height="60" as="geometry" />
        </mxCell>
        <mxCell id="Yy9-jkvoBrsG2HOOlJAp-24" value="" style="endArrow=none;html=1;rounded=0;" parent="WIyWlLk6GJQsqaUBKTNV-1" edge="1">
          <mxGeometry width="50" height="50" relative="1" as="geometry">
            <mxPoint x="170" y="619.5" as="sourcePoint" />
            <mxPoint x="255" y="619.5" as="targetPoint" />
          </mxGeometry>
        </mxCell>
        <mxCell id="Yy9-jkvoBrsG2HOOlJAp-25" value="" style="endArrow=none;html=1;rounded=0;" parent="WIyWlLk6GJQsqaUBKTNV-1" edge="1">
          <mxGeometry width="50" height="50" relative="1" as="geometry">
            <mxPoint x="170" y="990" as="sourcePoint" />
            <mxPoint x="170" y="620" as="targetPoint" />
          </mxGeometry>
        </mxCell>
        <mxCell id="Yy9-jkvoBrsG2HOOlJAp-26" value="" style="endArrow=classic;html=1;rounded=0;entryX=0;entryY=0.5;entryDx=0;entryDy=0;" parent="WIyWlLk6GJQsqaUBKTNV-1" target="Yy9-jkvoBrsG2HOOlJAp-16" edge="1">
          <mxGeometry width="50" height="50" relative="1" as="geometry">
            <mxPoint x="170" y="990" as="sourcePoint" />
            <mxPoint x="220" y="930" as="targetPoint" />
          </mxGeometry>
        </mxCell>
        <mxCell id="Yy9-jkvoBrsG2HOOlJAp-27" value="" style="endArrow=none;html=1;rounded=0;" parent="WIyWlLk6GJQsqaUBKTNV-1" edge="1">
          <mxGeometry width="50" height="50" relative="1" as="geometry">
            <mxPoint x="380" y="870" as="sourcePoint" />
            <mxPoint x="450" y="870" as="targetPoint" />
          </mxGeometry>
        </mxCell>
        <mxCell id="Yy9-jkvoBrsG2HOOlJAp-28" value="" style="endArrow=none;html=1;rounded=0;" parent="WIyWlLk6GJQsqaUBKTNV-1" edge="1">
          <mxGeometry width="50" height="50" relative="1" as="geometry">
            <mxPoint x="449" y="870" as="sourcePoint" />
            <mxPoint x="450" y="620" as="targetPoint" />
          </mxGeometry>
        </mxCell>
        <mxCell id="Yy9-jkvoBrsG2HOOlJAp-29" value="" style="endArrow=classic;html=1;rounded=0;" parent="WIyWlLk6GJQsqaUBKTNV-1" target="Yy9-jkvoBrsG2HOOlJAp-10" edge="1">
          <mxGeometry width="50" height="50" relative="1" as="geometry">
            <mxPoint x="450" y="620" as="sourcePoint" />
            <mxPoint x="500" y="570" as="targetPoint" />
          </mxGeometry>
        </mxCell>
        <mxCell id="Yy9-jkvoBrsG2HOOlJAp-30" value="" style="endArrow=none;html=1;rounded=0;" parent="WIyWlLk6GJQsqaUBKTNV-1" edge="1">
          <mxGeometry width="50" height="50" relative="1" as="geometry">
            <mxPoint x="80" y="1240" as="sourcePoint" />
            <mxPoint x="280" y="1240" as="targetPoint" />
          </mxGeometry>
        </mxCell>
        <mxCell id="Yy9-jkvoBrsG2HOOlJAp-31" value="" style="endArrow=none;html=1;rounded=0;" parent="WIyWlLk6GJQsqaUBKTNV-1" edge="1">
          <mxGeometry width="50" height="50" relative="1" as="geometry">
            <mxPoint x="80" y="1239" as="sourcePoint" />
            <mxPoint x="80" y="358.33331298828125" as="targetPoint" />
          </mxGeometry>
        </mxCell>
        <mxCell id="Yy9-jkvoBrsG2HOOlJAp-32" value="" style="endArrow=classic;html=1;rounded=0;entryX=0;entryY=0.25;entryDx=0;entryDy=0;" parent="WIyWlLk6GJQsqaUBKTNV-1" target="Yy9-jkvoBrsG2HOOlJAp-6" edge="1">
          <mxGeometry width="50" height="50" relative="1" as="geometry">
            <mxPoint x="80" y="358" as="sourcePoint" />
            <mxPoint x="130" y="310" as="targetPoint" />
          </mxGeometry>
        </mxCell>
        <mxCell id="Yy9-jkvoBrsG2HOOlJAp-33" value="No" style="text;html=1;align=center;verticalAlign=middle;resizable=0;points=[];autosize=1;strokeColor=none;fillColor=none;" parent="WIyWlLk6GJQsqaUBKTNV-1" vertex="1">
          <mxGeometry x="178" y="591" width="40" height="30" as="geometry" />
        </mxCell>
        <mxCell id="Yy9-jkvoBrsG2HOOlJAp-34" value="Yes" style="text;html=1;align=center;verticalAlign=middle;resizable=0;points=[];autosize=1;strokeColor=none;fillColor=none;" parent="WIyWlLk6GJQsqaUBKTNV-1" vertex="1">
          <mxGeometry x="316" y="688" width="40" height="30" as="geometry" />
        </mxCell>
        <mxCell id="Yy9-jkvoBrsG2HOOlJAp-35" value="Yes" style="text;html=1;align=center;verticalAlign=middle;resizable=0;points=[];autosize=1;strokeColor=none;fillColor=none;" parent="WIyWlLk6GJQsqaUBKTNV-1" vertex="1">
          <mxGeometry x="138" y="1240" width="40" height="30" as="geometry" />
        </mxCell>
        <mxCell id="Yy9-jkvoBrsG2HOOlJAp-36" value="No" style="text;html=1;align=center;verticalAlign=middle;resizable=0;points=[];autosize=1;strokeColor=none;fillColor=none;" parent="WIyWlLk6GJQsqaUBKTNV-1" vertex="1">
          <mxGeometry x="316" y="1290" width="40" height="30" as="geometry" />
        </mxCell>
      </root>
    </mxGraphModel>
  </diagram>
</mxfile>
